<svg width="20" height="20" viewBox="0 0 20 20" fill="none" xmlns="http://www.w3.org/2000/svg">
  <path d="M19.8055 10.2292C19.8055 9.55056 19.7501 8.86667 19.6306 8.19861H10.2V12.0486H15.6014C15.3773 13.2911 14.6571 14.3898 13.6025 15.0875V17.5861H16.8251C18.7174 15.8444 19.8055 13.2722 19.8055 10.2292Z" fill="#4285F4"/>
  <path d="M10.2 20C12.9571 20 15.2714 19.1044 16.8286 17.5856L13.606 15.087C12.7086 15.6969 11.5543 16.0428 10.2034 16.0428C7.54286 16.0428 5.29714 14.2828 4.51143 11.9094H1.18286V14.4906C2.78857 17.6783 6.31143 20 10.2 20Z" fill="#34A853"/>
  <path d="M4.50857 11.9094C4.04571 10.6669 4.04571 9.33639 4.50857 8.09389V5.5127H1.18286C-0.197143 8.25936 -0.197143 11.7439 1.18286 14.4906L4.50857 11.9094Z" fill="#FBBC04"/>
  <path d="M10.2 3.95722C11.6286 3.93556 13.0057 4.47222 14.0366 5.45722L16.8937 2.60056C15.1857 0.990556 12.7371 0.0949998 10.2 0.116667C6.31143 0.116667 2.78857 2.43833 1.18286 5.51278L4.50857 8.09389C5.29143 5.71722 7.54 3.95722 10.2 3.95722Z" fill="#EA4335"/>
</svg>
